PathFileType	4	(X/Y/Z)	/Users/itak/Documents/Research/Walk-IL/dataset/trc/00119_00007.trc
DataRate	CameraRate	NumFrames	NumMarkers	Units	OrigDataRate	OrigDataStartFrame	OrigNumFrames
100.000000	100.000000	4	53	mm	100.000000	626	716
Frame#	Time	RPSI			LPSI			L3			STRN			T10			C7			CLAV			RBAK			LBAK			LSHO			LUPA			LAEL			LAOL			LWTS			LWPS			LFRA			LIFD			LHPS			LHTS			RSHO			RUPA			RAEL			RAOL			RWTS			RWPS			RFRA			RIFD			RHTS			RHPS			RBHD			LFHD			RFHD			LBHD			LHIP			RHIP			RASI			LASI			LKNE			LTHI			LANK			LTIP			LTOE			LMT1			LMT5			LHEE			RKNE			RTHI			RANK			RTIP			RTOE			RMT1			RMT5			RHEE			
		X1	Y1	Z1	X2	Y2	Z2	X3	Y3	Z3	X4	Y4	Z4	X5	Y5	Z5	X6	Y6	Z6	X7	Y7	Z7	X8	Y8	Z8	X9	Y9	Z9	X10	Y10	Z10	X11	Y11	Z11	X12	Y12	Z12	X13	Y13	Z13	X14	Y14	Z14	X15	Y15	Z15	X16	Y16	Z16	X17	Y17	Z17	X18	Y18	Z18	X19	Y19	Z19	X20	Y20	Z20	X21	Y21	Z21	X22	Y22	Z22	X23	Y23	Z23	X24	Y24	Z24	X25	Y25	Z25	X26	Y26	Z26	X27	Y27	Z27	X28	Y28	Z28	X29	Y29	Z29	X30	Y30	Z30	X31	Y31	Z31	X32	Y32	Z32	X33	Y33	Z33	X34	Y34	Z34	X35	Y35	Z35	X36	Y36	Z36	X37	Y37	Z37	X38	Y38	Z38	X39	Y39	Z39	X40	Y40	Z40	X41	Y41	Z41	X42	Y42	Z42	X43	Y43	Z43	X44	Y44	Z44	X45	Y45	Z45	X46	Y46	Z46	X47	Y47	Z47	X48	Y48	Z48	X49	Y49	Z49	X50	Y50	Z50	X51	Y51	Z51	X52	Y52	Z52	X53	Y53	Z53	

627	6.26	-705.4817504882812	1124.866455078125	545.1264038085938	-609.2037963867188	1120.48046875	451.3289184570312	-656.7006225585938	1158.679931640625	493.1424560546875	-513.3096313476562	1365.50732421875	653.8665771484375	-678.82763671875	1309.791259765625	462.2492370605469	-647.2349853515625	1604.707153320312	468.3076477050781	-534.9219360351562	1498.626098632812	617.6243286132812	-747.7149047851562	1420.470825195312	492.9737243652344	-573.9275512695312	1580.791625976562	398.6780395507812	-466.0734558105469	1567.913330078125	420.740966796875	-427.8611145019531	1438.93017578125	353.7769470214844	-409.972412109375	1223.352661132812	327.9391784667969	-497.0532531738281	1214.944580078125	315.2256774902344	-385.97998046875	954.150146484375	403.4423522949219	-420.7756652832031	938.7825927734375	323.02294921875	-399.3399963378906	1106.222900390625	325.4553833007812	-405.2246704101562	760.46728515625	406.0609130859375	-404.0091857910156	861.1406860351562	335.3798217773438	-372.0246276855469	863.4356689453125	397.1936950683594	-747.4614868164062	1592.182250976562	631.883056640625	-808.9091186523438	1522.225952148438	664.6348876953125	-840.4326171875	1228.975341796875	695.4835815429688	-771.8507690429688	1219.428955078125	626.73779296875	-729.71728515625	1006.037353515625	827.8082275390625	-801.4675903320312	982.0223388671875	794.1959228515625	-835.5693359375	1159.863525390625	732.6912231445312	-691.6871337890625	816.8856811523438	863.1336059570312	-710.8029174804688	903.5663452148438	870.1853637695312	-777.02880859375	889.8846435546875	839.7794799804688	-649.3292236328125	1794.428100585938	569.9805908203125	-430.5652465820312	1813.230590820312	574.943603515625	-511.8017272949219	1835.404418945312	674.0659790039062	-571.3321533203125	1776.688842773438	461.8247375488281	-456.6329650878906	1035.103271484375	456.9647521972656	-710.93505859375	1039.81396484375	724.0963134765625	-616.9542846679688	1112.742553710938	747.6514892578125	-424.3014221191406	1103.900390625	566.3173217773438	-395.6693420410156	533.4044799804688	577.9677734375	-410.0853271484375	681.7232055664062	522.8963623046875	-621.595703125	211.0255889892578	212.0076751708984	-501.6278991699219	395.3043212890625	365.5663757324219	-625.3538208007812	34.26955795288086	359.4901123046875	-664.3025512695312	104.3661727905273	339.5	-585.8423461914062	98.97028350830078	258.8963623046875	-687.570556640625	275.66064453125	215.6619567871094	-661.3580322265625	546.2652587890625	735.385009765625	-682.8088989257812	827.4351196289062	753.7359619140625	-667.8101806640625	28.28872871398926	677.744384765625	-673.9187622070312	410.6935729980469	733.6699829101562	-468.5883483886719	42.63296890258789	815.2218017578125	-481.6169128417969	40.94269180297852	743.1072998046875	-596.7345581054688	38.28800582885742	793.560791015625	-669.4586791992188	34.53925704956055	601.88623046875	
628	6.27	-704.5228271484375	1124.872680664062	550.6055908203125	-608.9683837890625	1120.345336914062	456.18505859375	-655.9971313476562	1158.740356445312	498.4927368164062	-511.7050170898438	1365.5234375	658.638671875	-678.720458984375	1309.962646484375	468.3627624511719	-647.1348266601562	1604.95556640625	474.3814697265625	-533.4739990234375	1498.664794921875	622.662841796875	-747.4515991210938	1420.746826171875	499.7324523925781	-574.45166015625	1581.109252929688	404.1374816894531	-466.3476867675781	1568.074462890625	425.2346801757812	-429.0608215332031	1439.108032226562	357.749755859375	-411.8270874023438	1223.583862304688	331.4046020507812	-498.9709167480469	1215.16455078125	320.0215454101562	-385.9454956054688	954.9359130859375	407.9270324707031	-421.9185791015625	938.919921875	328.147216796875	-400.9595336914062	1106.45361328125	329.1988525390625	-404.5183410644531	761.2405395507812	412.2247619628906	-404.72216796875	861.4078979492188	340.8316040039062	-371.784423828125	864.2413940429688	402.0963134765625	-745.87744140625	1592.209594726562	638.8848876953125	-807.0613403320312	1522.297729492188	672.2894287109375	-838.137451171875	1229.009521484375	704.3442993164062	-770.2513427734375	1219.255126953125	634.8748168945312	-725.0281372070312	1007.976684570312	837.651611328125	-796.7412109375	983.2279663085938	804.818359375	-832.6043090820312	1160.304077148438	742.02880859375	-685.1849975585938	819.5689086914062	874.703369140625	-704.943115234375	906.1145629882812	880.9536743164062	-771.298828125	891.654541015625	851.1422119140625	-648.1105346679688	1794.496704101562	577.1144409179688	-429.181884765625	1812.994506835938	579.81640625	-509.3549499511719	1834.867065429688	679.8331909179688	-571.1774291992188	1777.053955078125	467.9959106445312	-455.8187255859375	1035.198852539062	461.5469360351562	-709.446533203125	1039.84130859375	729.5032348632812	-615.1654052734375	1112.732666015625	752.931640625	-423.2882080078125	1104.075439453125	570.7080688476562	-391.255615234375	534.7052612304688	586.5675048828125	-406.9861450195312	682.4369506835938	530.2529296875	-619.27587890625	208.0983734130859	226.123046875	-499.2598876953125	394.6038208007812	376.4312133789062	-611.9519653320312	35.4908561706543	377.494873046875	-654.8748779296875	102.6669464111328	356.5393981933594	-577.3977661132812	99.47343444824219	274.7952270507812	-687.525146484375	270.2538452148438	229.2415618896484	-662.032470703125	545.8972778320312	737.3819580078125	-681.7907104492188	827.2205810546875	757.6515502929688	-667.7749633789062	28.29205894470215	677.7720336914062	-674.6856689453125	410.4794921875	734.9632568359375	-468.3066711425781	42.69159698486328	815.213623046875	-481.5951843261719	41.07443237304688	743.17431640625	-596.7634887695312	38.24800872802734	793.634521484375	-669.4491577148438	34.64067459106445	601.8991088867188	
629	6.28	-703.5985717773438	1124.844604492188	555.931884765625	-608.0664672851562	1120.185424804688	461.3490600585938	-655.357177734375	1158.770263671875	503.6680603027344	-510.1585693359375	1365.486572265625	663.2907104492188	-678.7015380859375	1310.078125	474.2598266601562	-647.0061645507812	1605.1376953125	480.2979125976562	-532.0670776367188	1498.646484375	627.5802001953125	-747.1766357421875	1420.946044921875	506.2920227050781	-574.9420166015625	1581.345703125	409.4641418457031	-466.5993041992188	1568.16162109375	429.6005859375	-430.2081909179688	1439.179565429688	361.7174377441406	-413.6249694824219	1223.682373046875	335.0081787109375	-500.8007507324219	1215.224975585938	324.9298706054688	-385.9158325195312	955.6187133789062	412.5984497070312	-422.96533203125	938.931884765625	333.4565734863281	-402.5340270996094	1106.547241210938	333.1257934570312	-403.7890319824219	761.9215087890625	418.5925903320312	-405.3489379882812	861.5599975585938	346.4971923828125	-371.5242919921875	864.9451293945312	407.2249450683594	-744.3487548828125	1592.163818359375	645.6812133789062	-805.2645263671875	1522.283203125	679.69384765625	-835.8734741210938	1228.958251953125	712.8778686523438	-768.6660766601562	1219.007202148438	642.7034301757812	-720.3846435546875	1009.884216308594	847.1931762695312	-791.99658203125	984.33544921875	815.095947265625	-829.672607421875	1160.688232421875	751.02783203125	-678.7145385742188	822.2454223632812	885.987060546875	-699.0768432617188	908.6658325195312	891.406494140625	-765.546630859375	893.3638305664062	862.1488647460938	-646.8908081054688	1794.498046875	584.1071166992188	-427.8473815917969	1812.699584960938	584.5609741210938	-506.9583129882812	1834.257202148438	685.4727172851562	-571.02392578125	1777.374755859375	474.0444641113281	-455.0212707519531	1035.244995117188	466.0126342773438	-707.97900390625	1039.811767578125	734.7734375	-613.410888671875	1112.664428710938	758.0609130859375	-422.2657775878906	1104.19384765625	574.9775390625	-387.1010131835938	535.9391479492188	594.7454223632812	-404.0622863769531	683.0974731445312	537.2676391601562	-616.7674560546875	204.5957794189453	240.247802734375	-496.9068603515625	393.4186401367188	386.9869079589844	-597.6013793945312	36.72570419311523	395.1782531738281	-644.7433471679688	100.6206436157227	373.527587890625	-568.4603271484375	99.87992858886719	290.4826354980469	-687.40576171875	263.9683837890625	242.9792633056641	-662.4887084960938	545.5556030273438	739.4136962890625	-680.7549438476562	826.9903564453125	761.4830322265625	-667.7272338867188	28.28794288635254	677.8125	-675.2529296875	410.2687683105469	736.3128051757812	-468.0156555175781	42.75226974487305	815.193603515625	-481.5484008789062	41.20287322998047	743.2335815429688	-596.7791137695312	38.21334075927734	793.7039184570312	-669.4581298828125	34.72311782836914	601.9197387695312	
630	6.29	-702.7020874023438	1124.796264648438	561.1047973632812	-606.4154052734375	1120.030151367188	466.8594665527344	-654.7581176757812	1158.772583007812	508.6809997558594	-508.6659240722656	1365.409423828125	667.8303833007812	-678.7438354492188	1310.13818359375	479.9431457519531	-646.8564453125	1605.259521484375	486.0663757324219	-530.706787109375	1498.586181640625	632.3817138671875	-746.888427734375	1421.077270507812	512.65478515625	-575.3997802734375	1581.512573242188	414.662353515625	-466.8373413085938	1568.170776367188	433.8345031738281	-431.3088684082031	1439.155639648438	365.6781311035156	-415.3658752441406	1223.658325195312	338.7428894042969	-502.5675354003906	1215.132202148438	329.9379272460938	-385.8700561523438	956.2081909179688	417.431884765625	-423.9243469238281	938.8291625976562	338.9306945800781	-404.0634155273438	1106.514404296875	337.2208251953125	-403.0190734863281	762.5194702148438	425.1376342773438	-405.8978271484375	861.6069946289062	352.3475341796875	-371.2323913574219	865.5560913085938	412.5450744628906	-742.8782348632812	1592.057006835938	652.27197265625	-803.5263061523438	1522.194091796875	686.8446655273438	-833.6456298828125	1228.83935546875	721.087158203125	-767.0833740234375	1218.69677734375	650.2312622070312	-715.7836303710938	1011.753540039062	856.4081420898438	-787.2462158203125	985.3548583984375	825.0166015625	-826.7705688476562	1161.006469726562	759.6849365234375	-672.278564453125	824.9137573242188	896.9412841796875	-693.2219848632812	911.21728515625	901.51708984375	-759.7811889648438	895.0162353515625	872.78662109375	-645.6658325195312	1794.446044921875	590.9447631835938	-426.5599060058594	1812.35693359375	589.1748046875	-504.6137390136719	1833.590698242188	690.9776611328125	-570.8722534179688	1777.664184570312	479.9649047851562	-454.2398681640625	1035.25537109375	470.3594360351562	-706.514892578125	1039.737670898438	739.9136962890625	-611.6909790039062	1112.551513671875	763.0418701171875	-421.2325439453125	1104.269409179688	579.128662109375	-383.2136535644531	537.10400390625	602.4862060546875	-401.3334655761719	683.7003784179688	543.9297485351562	-613.9852294921875	200.5126342773438	254.3439025878906	-494.5469665527344	391.7540893554688	397.21533203125	-582.6175537109375	38.01555633544922	412.5037841796875	-634.0615844726562	98.31258392333984	390.3887023925781	-559.1663208007812	100.1450500488281	305.9358825683594	-687.0781860351562	256.8351745605469	256.8155212402344	-662.7188110351562	545.2398681640625	741.4877319335938	-679.6931762695312	826.7510375976562	765.2463989257812	-667.6632080078125	28.28129386901855	677.864013671875	-675.6078491210938	410.059326171875	737.7272338867188	-467.7520141601562	42.79824447631836	815.1751708984375	-481.4773254394531	41.32794570922852	743.2869873046875	-596.78173828125	38.18474578857422	793.768310546875	-669.47900390625	34.79472351074219	601.948486328125	
